<svg width="463" height="189" viewBox="0 0 463 189" fill="none" xmlns="http://www.w3.org/2000/svg">
<path d="M214.839 117.914C211.68 117.914 208.741 117.374 206.022 116.294C203.343 115.175 200.984 113.615 198.944 111.616C196.945 109.616 195.385 107.297 194.266 104.658C193.146 101.979 192.586 99.0995 192.586 96.0204C192.586 92.9414 193.146 90.0822 194.266 87.443C195.385 84.7639 196.945 82.4446 198.944 80.4852C200.944 78.5258 203.283 77.0062 205.962 75.9266C208.681 74.8069 211.62 74.2471 214.779 74.2471C218.138 74.2471 221.118 74.7869 223.717 75.8666C225.947 76.7792 227.935 77.9774 229.681 79.4614C230.208 79.9097 230.216 80.708 229.729 81.1997L225.223 85.7479C224.728 86.2475 223.921 86.2297 223.386 85.773C222.467 84.9886 221.418 84.3456 220.238 83.8441C218.678 83.1644 216.859 82.8245 214.779 82.8245C212.94 82.8245 211.241 83.1444 209.681 83.7842C208.161 84.384 206.842 85.2637 205.722 86.4234C204.643 87.583 203.783 88.9826 203.143 90.6221C202.543 92.2616 202.243 94.061 202.243 96.0204C202.243 98.0198 202.543 99.8393 203.143 101.479C203.783 103.118 204.643 104.518 205.722 105.677C206.842 106.837 208.161 107.737 209.681 108.377C211.241 109.016 212.94 109.336 214.779 109.336C216.939 109.336 218.818 108.996 220.418 108.317C221.613 107.809 222.686 107.155 223.636 106.357C224.166 105.911 224.958 105.899 225.447 106.389L230.002 110.943C230.5 111.441 230.485 112.256 229.942 112.703C228.141 114.185 226.126 115.382 223.897 116.294C221.297 117.374 218.278 117.914 214.839 117.914Z" fill="black"/>
<path d="M181.411 117.254C180.727 117.254 180.172 116.699 180.172 116.015V76.1458C180.172 75.4615 180.727 74.9069 181.411 74.9069H188.35C189.034 74.9069 189.589 75.4615 189.589 76.1458V116.015C189.589 116.699 189.034 117.254 188.35 117.254H181.411Z" fill="black"/>
<path d="M233.101 116.015C233.101 116.699 233.656 117.254 234.34 117.254H241.279C241.323 117.254 241.366 117.252 241.409 117.247C241.451 117.252 241.494 117.254 241.538 117.254H262.273C262.957 117.254 263.512 116.699 263.512 116.015V110.335C263.512 109.651 262.957 109.096 262.273 109.096H242.518V99.5594H260.174C260.858 99.5594 261.412 99.0047 261.412 98.3205V92.9406C261.412 92.2564 260.858 91.7017 260.174 91.7017H242.518V83.0044H261.973C262.657 83.0044 263.212 82.4497 263.212 81.7655V76.1458C263.212 75.4615 262.657 74.9069 261.973 74.9069H241.538C241.494 74.9069 241.451 74.9091 241.409 74.9135C241.366 74.9091 241.323 74.9069 241.279 74.9069H234.34C233.656 74.9069 233.101 75.4615 233.101 76.1458V116.015Z" fill="black"/>
<path fill-rule="evenodd" clip-rule="evenodd" d="M275.441 117.254C275.377 117.254 275.314 117.249 275.252 117.24C275.191 117.249 275.127 117.254 275.063 117.254H268.244C267.559 117.254 267.005 116.699 267.005 116.015V76.1458C267.005 75.4615 267.559 74.9069 268.244 74.9069H275.063C275.127 74.9069 275.191 74.9118 275.252 74.9212C275.314 74.9118 275.377 74.9069 275.441 74.9069H285.179C287.898 74.9069 290.198 75.4067 292.077 76.4064C293.997 77.4061 295.456 78.7457 296.456 80.4252C297.455 82.1047 297.955 83.9641 297.955 86.0035C297.955 88.6027 297.116 90.802 295.436 92.6015C294.713 93.3767 293.841 94.048 292.82 94.6155C294.251 95.3165 295.463 96.2047 296.456 97.28C298.415 99.3594 299.395 101.919 299.395 104.958C299.395 107.277 298.815 109.376 297.655 111.256C296.536 113.095 294.896 114.555 292.737 115.634C290.618 116.714 288.058 117.254 285.059 117.254H275.441ZM276.302 109.936H284.16C285.999 109.936 287.439 109.396 288.478 108.317C289.518 107.237 290.038 105.917 290.038 104.358C290.038 103.278 289.798 102.319 289.318 101.479C288.838 100.639 288.158 99.9792 287.279 99.4994C286.439 99.0195 285.399 98.7796 284.16 98.7796H276.302V109.936ZM283.38 91.6418H276.302V82.2246H283.38C284.939 82.2246 286.199 82.6245 287.159 83.4243C288.118 84.184 288.598 85.3437 288.598 86.9032C288.598 88.5027 288.118 89.7024 287.159 90.5021C286.199 91.2619 284.939 91.6418 283.38 91.6418Z" fill="black"/>
<path d="M302.431 116.015C302.431 116.699 302.986 117.254 303.67 117.254H310.61C310.653 117.254 310.696 117.252 310.739 117.247C310.781 117.252 310.825 117.254 310.868 117.254H331.603C332.288 117.254 332.842 116.699 332.842 116.015V110.335C332.842 109.651 332.288 109.096 331.603 109.096H311.849V99.5594H329.504C330.188 99.5594 330.743 99.0047 330.743 98.3205V92.9406C330.743 92.2564 330.188 91.7017 329.504 91.7017H311.849V83.0044H331.303C331.988 83.0044 332.542 82.4497 332.542 81.7655V76.1458C332.542 75.4615 331.988 74.9069 331.303 74.9069H310.868C310.825 74.9069 310.781 74.9091 310.739 74.9135C310.696 74.9091 310.653 74.9069 310.61 74.9069H303.67C302.986 74.9069 302.431 75.4615 302.431 76.1458V116.015Z" fill="black"/>
<path fill-rule="evenodd" clip-rule="evenodd" d="M345.752 116.015V99.7993H346.989C346.998 100.031 347.073 100.265 347.224 100.473L358.997 116.741C359.23 117.063 359.603 117.254 360.001 117.254H368.019C369.045 117.254 369.627 116.078 369.004 115.263L356.959 99.4944C358.4 99.238 359.723 98.8198 360.928 98.2398C363.087 97.2001 364.767 95.7605 365.966 93.9211C367.166 92.0416 367.766 89.8623 367.766 87.3831C367.766 84.9438 367.166 82.7845 365.966 80.905C364.767 79.0256 363.107 77.5661 360.988 76.5264C358.868 75.4467 356.409 74.9069 353.61 74.9069H344.772C344.728 74.9069 344.685 74.9091 344.643 74.9135C344.6 74.9091 344.557 74.9069 344.513 74.9069H337.574C336.89 74.9069 336.335 75.4615 336.335 76.1458V116.015C336.335 116.699 336.89 117.254 337.574 117.254H344.513C345.198 117.254 345.752 116.699 345.752 116.015ZM352.47 92.8414H345.752V82.2246H352.53C354.41 82.2246 355.849 82.7245 356.849 83.7242C357.849 84.7239 358.348 85.9835 358.348 87.503C358.348 89.1425 357.829 90.4421 356.789 91.4018C355.789 92.3615 354.35 92.8414 352.47 92.8414Z" fill="black"/>
<path d="M382.746 116.234C385.465 117.354 388.364 117.914 391.443 117.914C395.642 117.914 399.341 117.034 402.54 115.275C405.779 113.515 408.298 110.916 410.097 107.477C411.937 103.998 412.856 99.7193 412.856 94.6409V94.5002C412.856 93.8159 412.302 93.2613 411.617 93.2613H391.842C391.158 93.2613 390.603 93.8159 390.603 94.5002V100.019C390.603 100.696 391.146 101.247 391.822 101.258L402.769 101.432C402.536 102.313 402.219 103.129 401.82 103.878C400.9 105.637 399.56 106.997 397.801 107.957C396.081 108.877 393.982 109.336 391.503 109.336C389.064 109.336 386.904 108.777 385.025 107.657C383.145 106.537 381.666 104.978 380.586 102.978C379.507 100.979 378.967 98.6596 378.967 96.0204C378.967 93.3812 379.507 91.0819 380.586 89.1225C381.706 87.1231 383.245 85.5836 385.205 84.5039C387.164 83.3843 389.384 82.8245 391.863 82.8245C394.182 82.8245 396.261 83.2643 398.101 84.1441C399.545 84.8347 400.841 85.7964 401.989 87.0292C402.498 87.5756 403.367 87.6354 403.895 87.1073L408.512 82.4902C408.967 82.0349 409.001 81.3034 408.557 80.837C406.729 78.9177 404.503 77.3808 401.88 76.2265C398.921 74.9069 395.622 74.2471 391.983 74.2471C388.824 74.2471 385.865 74.8069 383.105 75.9266C380.346 77.0062 377.927 78.5458 375.848 80.5451C373.808 82.5046 372.209 84.8039 371.049 87.443C369.889 90.0822 369.31 92.9414 369.31 96.0204C369.31 99.0995 369.869 101.979 370.989 104.658C372.149 107.297 373.728 109.616 375.728 111.616C377.727 113.575 380.066 115.115 382.746 116.234Z" fill="black"/>
<path d="M56.2723 59.8229C50.9668 66.5693 50.9668 76.4438 50.9668 96.1928C50.9668 115.942 50.9668 125.816 56.2723 132.563C57.4898 134.111 58.8875 135.508 60.4357 136.726C61.0282 137.192 61.6449 137.617 62.2903 138.005L88.4058 80.3472C89.5411 77.8406 92.4165 76.6327 95.0013 77.5763L111.597 83.635C113.165 84.2073 114.368 85.4896 114.839 87.0905L130.038 138.708C131.162 138.147 132.201 137.492 133.175 136.726C134.724 135.508 136.121 134.111 137.339 132.563C142.644 125.816 142.644 115.942 142.644 96.1928C142.644 76.4438 142.644 66.5693 137.339 59.8229C136.121 58.2747 134.724 56.877 133.175 55.6595C126.429 50.354 116.554 50.354 96.8055 50.354C77.0566 50.354 67.1821 50.354 60.4357 55.6595C58.8875 56.877 57.4898 58.2747 56.2723 59.8229Z" fill="black"/>
</svg>
